<svg xmlns="http://www.w3.org/2000/svg" viewBox="0 0 512 512">
  <defs>
    <linearGradient id="bg" x1="0" x2="1" y1="0" y2="1">
      <stop offset="0%" stop-color="#0f172a"/>
      <stop offset="100%" stop-color="#1e293b"/>
    </linearGradient>
    <linearGradient id="accent" x1="0" x2="1" y1="0" y2="1">
      <stop offset="0%" stop-color="#fbbf24"/>
      <stop offset="100%" stop-color="#f59e0b"/>
    </linearGradient>
  </defs>

  <rect width="512" height="512" rx="120" fill="url(#bg)"/>

  <circle cx="390" cy="128" r="52" fill="url(#accent)" opacity="0.96"/>
  <path d="M390 82v92M344 128h92" stroke="#fff" stroke-width="18" stroke-linecap="round"/>

  <path d="M146 392L256 124l110 268h-72l-20-64H238l-20 64h-72zm82-120h56l-28-78-28 78z" fill="#f8fafc"/>

  <path d="M122 420h268c16 0 28 12 28 28H94c0-16 12-28 28-28z" fill="#f8fafc" opacity="0.12"/>
  <path d="M138 408h236c20 0 36 16 36 36H102c0-20 16-36 36-36z" fill="url(#accent)" opacity="0.92"/>
</svg>
